<svg width="32" height="32" viewBox="0 0 32 32" fill="none" xmlns="http://www.w3.org/2000/svg">
  <!-- Background circle with gradient -->
  <defs>
    <linearGradient id="bgGradient" x1="0%" y1="0%" x2="100%" y2="100%">
      <stop offset="0%" style="stop-color:#E91E63;stop-opacity:1" />
      <stop offset="100%" style="stop-color:#C2185B;stop-opacity:1" />
    </linearGradient>
    <linearGradient id="heartGradient" x1="0%" y1="0%" x2="100%" y2="100%">
      <stop offset="0%" style="stop-color:#FFFFFF;stop-opacity:1" />
      <stop offset="100%" style="stop-color:#F8BBD9;stop-opacity:1" />
    </linearGradient>
  </defs>
  
  <!-- Background circle -->
  <circle cx="16" cy="16" r="16" fill="url(#bgGradient)"/>
  
  <!-- Main heart shape -->
  <path d="M16 26c-0.5 0-1-0.2-1.4-0.6C14.2 25 8 18.8 8 13c0-3.3 2.7-6 6-6 1.8 0 3.4 0.8 4.5 2.1C19.6 7.8 21.2 7 23 7c3.3 0 6 2.7 6 6 0 5.8-6.2 12-6.6 12.4C21.6 25.8 21.1 26 16 26z" fill="url(#heartGradient)"/>
  
  <!-- Inner heart highlight -->
  <path d="M16 24c-0.3 0-0.6-0.1-0.8-0.3C14.8 23.4 10 18.6 10 13c0-2.2 1.8-4 4-4 1.2 0 2.3 0.6 2.9 1.5C17.1 9.6 18.2 9 19.4 9c2.2 0 4 1.8 4 4 0 5.6-4.8 10.4-5.2 10.8C17.8 23.9 17.4 24 16 24z" fill="#FFFFFF" opacity="0.8"/>
  
  <!-- Sparkle effect -->
  <circle cx="12" cy="10" r="1" fill="#FFFFFF" opacity="0.9"/>
  <circle cx="20" cy="8" r="0.8" fill="#FFFFFF" opacity="0.7"/>
  <circle cx="22" cy="14" r="0.6" fill="#FFFFFF" opacity="0.8"/>
</svg>
